<?xml version="1.0" encoding="iso-8859-1"?>
<!-- Uploaded to: SVG Repo, www.svgrepo.com, Generator: SVG Repo Mixer Tools -->
<svg height="800px" width="800px" version="1.1" id="Layer_1" xmlns="http://www.w3.org/2000/svg" xmlns:xlink="http://www.w3.org/1999/xlink" 
	 viewBox="0 0 512.001 512.001" xml:space="preserve">
<path style="fill:#C3DFF7;" d="M405.813,172.593c-3.508-2.026-6.91-3.571-10.292-4.957c0.849-4.852,1.357-10.049,1.373-15.653
	c0.146-51.763-36.226-114.789-81.274-140.797C292.957-1.9,272.428-3.113,257.602,5.503l-29.09,16.906
	c-3.847-3.544-7.91-6.629-12.139-9.07c-11.905-6.873-22.688-7.513-30.473-2.989l-31.356,18.222
	c-14.48-5.627-27.446-5.142-37.357,0.618L58.154,63.496c0.04-0.023,0.082-0.042,0.121-0.064
	c-12.297,7.076-19.931,22.206-19.993,43.742c-0.122,43.234,30.28,95.895,67.885,117.606l240.171,138.663
	c19.026,10.984,36.246,11.941,48.647,4.628c-0.06,0.036-0.111,0.085-0.171,0.119l59.031-34.306
	c12.23-7.107,19.813-22.219,19.873-43.697C473.842,246.977,443.438,194.316,405.813,172.593z"/>
<path style="fill:#D2E7F8;" d="M256.588,45.491c45.048,26.009,81.421,89.034,81.274,140.797c-0.016,5.604-0.524,10.801-1.373,15.653
	c3.382,1.386,6.783,2.931,10.292,4.957c37.626,21.723,68.028,74.384,67.906,117.593c-0.122,43.234-30.724,60.674-68.35,38.95
	L106.167,224.78c-37.604-21.711-68.007-74.372-67.885-117.606c0.122-43.21,30.724-60.649,68.328-38.939
	c2.652,1.531,5.24,3.247,7.806,5.073c0.001-0.393-0.041-0.787-0.04-1.18c0.077-27.185,19.305-38.142,42.963-24.484
	c7.722,4.458,14.924,11.005,21.179,18.728C188.959,34.191,219.99,24.361,256.588,45.491z"/>
<g>
	<polygon style="fill:#C3DFF7;" points="402.533,463.539 396.517,437.525 372.175,435.519 373.947,406.615 349.976,392.775 
		332.293,403.052 326.968,397.372 303.194,411.187 297.057,430.185 321.003,452.554 305.053,470.942 322.574,494.262 
		341.767,483.108 353.299,512.001 370.89,508.952 394.664,495.137 385.366,473.516 	"/>
	<polygon style="fill:#C3DFF7;" points="270.147,364.566 245.805,362.56 247.577,333.656 223.607,319.816 205.921,330.094 
		200.591,324.408 176.817,338.224 170.68,357.221 194.626,379.59 178.682,397.982 196.197,421.298 215.395,410.142 226.923,439.037 
		244.521,435.993 268.294,422.177 258.992,400.552 276.157,390.576 	"/>
	<polygon style="fill:#C3DFF7;" points="143.771,291.603 119.429,289.597 121.201,260.692 97.23,246.853 79.547,257.13 
		74.222,251.449 50.448,265.265 44.303,284.258 68.25,306.627 52.307,325.019 69.828,348.339 89.02,337.186 100.547,366.074 
		118.144,363.029 141.918,349.214 132.62,327.594 149.787,317.617 	"/>
</g>
<g>
	<polygon style="fill:#D2E7F8;" points="378.759,477.356 355.103,472.241 370.89,508.952 353.299,512.001 338.184,474.132 
		322.574,494.262 305.053,470.942 321.003,452.554 297.057,430.185 303.194,411.187 327.805,437.444 326.202,406.592 
		350.173,420.431 348.401,449.335 372.742,451.342 	"/>
	<polygon style="fill:#D2E7F8;" points="246.373,378.383 252.383,404.393 228.726,399.278 244.52,435.993 226.923,439.037 
		211.815,401.173 196.197,421.298 178.682,397.982 194.626,379.59 170.68,357.221 176.817,338.224 201.436,364.485 199.833,333.633 
		223.803,347.471 222.032,376.376 	"/>
	<polygon style="fill:#D2E7F8;" points="119.996,305.419 126.014,331.433 102.356,326.318 118.144,363.029 100.547,366.074 
		85.439,328.209 69.828,348.339 52.307,325.019 68.25,306.627 44.303,284.258 50.448,265.265 75.059,291.521 73.457,260.669 
		97.427,274.508 95.655,303.412 	"/>
</g>
</svg>